<?xml version="1.0" encoding="utf-8"?>
<!-- Generator: Adobe Illustrator 23.0.6, SVG Export Plug-In . SVG Version: 6.00 Build 0)  -->
<svg version="1.1" id="Layer_1" xmlns="http://www.w3.org/2000/svg" xmlns:xlink="http://www.w3.org/1999/xlink" x="0px" y="0px"
	 viewBox="0 0 600 600" style="enable-background:new 0 0 600 600;" xml:space="preserve">
<style type="text/css">
	.st0{fill:#FFFFFF;}
</style>
<g>
	<path class="st0" d="M540.3,218.2V59.7H381.8v52.8H450l-95.1,95.1c-30.6-23.2-69.2-37-110.4-37c-101.9,0-184.8,82.9-184.8,184.8
		s82.9,184.8,184.8,184.8s184.8-82.9,184.8-184.8c0-41.7-13.7-79.7-37-110.4l95.1-95.1v68.1L540.3,218.2z M244.5,487.5
		c-72.9,0-132-59.1-132-132s59.1-132,132-132s132,59.1,132,132S317.4,487.5,244.5,487.5z"/>
</g>
</svg>
