<?xml version="1.0" encoding="utf-8"?>
<!-- Generator: Adobe Illustrator 23.0.6, SVG Export Plug-In . SVG Version: 6.00 Build 0)  -->
<svg version="1.1" id="Layer_1" xmlns="http://www.w3.org/2000/svg" xmlns:xlink="http://www.w3.org/1999/xlink" x="0px" y="0px"
	 viewBox="0 0 600 600" style="enable-background:new 0 0 600 600;" xml:space="preserve">
<style type="text/css">
	.st0{fill:#FFFFFF;}
</style>
<path class="st0" d="M552,436.1l-35.3-35.3l-40.3,40.3l-68-68c27.7-35.3,42.8-78.1,42.8-123.5C451.2,138.7,360.5,48,249.6,48
	S48,138.7,48,249.6s90.7,201.6,201.6,201.6c45.4,0,88.2-15.1,123.5-42.8l68,68l-40.3,40.3l35.3,35.3l40.3-40.3l40.3,40.3l35.3-35.3
	l-40.3-40.3L552,436.1z M249.6,400.8c-83.2,0-151.2-68-151.2-151.2s68-151.2,151.2-151.2s151.2,68,151.2,151.2
	S332.8,400.8,249.6,400.8z"/>
</svg>
