<?xml version="1.0" encoding="utf-8"?>
<!-- Generator: Adobe Illustrator 23.0.6, SVG Export Plug-In . SVG Version: 6.00 Build 0)  -->
<svg version="1.1" id="Layer_1" xmlns="http://www.w3.org/2000/svg" xmlns:xlink="http://www.w3.org/1999/xlink" x="0px" y="0px"
	 viewBox="0 0 600 600" style="enable-background:new 0 0 600 600;" xml:space="preserve">
<g>
	<path d="M36.6,207.2c19.2,0,37.1-7.6,52.8-22.1c15.6,14.5,33.7,22.1,52.8,22.1s37.1-8.1,52.8-22.1c15.6,14.5,33.7,22.1,52.8,22.1
		c18.5,0,37.1-8.1,52.8-22.1c15.6,14.5,33.7,22.1,52.8,22.1s37.1-8.1,52.8-22.1c15.6,14.5,33.7,22.1,52.8,22.1h0.6
		c18.5,0,37.1-8.1,52.8-22.1c15.6,14.5,33.7,22.1,52.8,22.1c6.4,0,11.6-5.2,11.6-11.6c0-6.4-5.2-11.6-11.6-11.6
		c-19.7,0-34.8-12.7-44.1-23.2c-4.7-5.2-13.4-5.2-18,0c-8.7,10.5-23.8,23.2-44.1,23.2h-0.6c-19.7,0-34.8-12.7-44.1-23.2
		c-4.7-5.2-13.4-5.2-18,0c-8.7,10.5-23.8,23.2-44.1,23.2c-19.7,0-34.8-12.7-44.1-23.2c-2.3-2.9-5.2-4-8.7-4s-6.9,1.8-8.7,4
		c-8.7,10.5-23.8,23.2-44.1,23.2c-19.7,0-34.8-12.7-44.1-23.2c-4.7-5.2-13.4-5.2-18,0c-8.7,10.5-23.8,23.2-44.1,23.2
		c-19.7,0-34.8-12.7-44.1-23.2c-2.3-2.9-5.2-4-8.7-4c-3.5,0-6.9,1.8-8.7,4C69.5,171.3,55,184,34.7,184c-6.4,0-11.6,5.2-11.6,11.6
		C25,201.9,30.1,207.2,36.6,207.2L36.6,207.2z"/>
	<path d="M215.7,289.5c-2.3-15.6-15.6-29.6-33-29.6c-19.7-0.6-46.4,2.3-74.8,13.4c-2.9,1.1-4,5.2-1.8,7.6c4.7,5.8,6.9,11,8.1,16.3
		c-16.8,8.7-29.6,19.7-39.5,29.6c-8.6-10.6-22-23.3-41.1-30.2c-4.7-1.8-9.3,2.3-8.1,7.6c5.2,23.2,15.6,45.8,15.6,45.8
		s-9.8,22.6-15.6,45.8c-1.1,4.7,3.5,9.3,8.1,7.6c20.3-7.6,33.7-20.9,42.4-31.9c15.6,14.5,39.5,33,67.8,41.2
		c0.6,10.5-2.9,19.7-5.8,25c-1.1,2.9,0.6,5.8,3.5,5.8c30.1,0,45.8-18,52.2-28.4c33.7-6.9,62-28.4,79.4-44.6
		c12.2-11.6,12.2-30.8,0.6-42.4C261,314.5,241.3,298.8,215.7,289.5L215.7,289.5z M228.5,340.6c-6.9,0-12.7-5.8-12.7-12.7
		s5.8-12.7,12.7-12.7s12.7,5.8,12.7,12.7S235.5,340.6,228.5,340.6z"/>
	<path d="M575.9,303.4c1.1-4.7-3.5-9.3-8.1-7.6c-19.2,6.9-33,19.7-41.2,30.1c-9.8-9.8-22.6-20.9-39.5-29.6
		c1.1-5.2,3.5-10.5,8.1-16.3c2.3-2.3,1.1-6.4-1.8-7.6c-28.4-11-55.1-13.9-74.8-13.4c-18,0.6-31.3,13.9-33,29.6
		c-25.5,9.3-44.6,24.3-58,37.7c-11.6,11.6-11.6,30.8,0.6,42.4c17.4,16.3,45.8,37.7,79.4,44.6c6.4,10.5,22.1,27.9,52.2,28.4
		c2.9,0,5.2-2.9,3.5-5.8c-2.9-5.2-5.8-13.9-5.8-25c28.4-8.1,52.8-26.1,67.8-41.2c8.1,11,22.1,24.3,42.4,31.9
		c4.7,1.8,9.3-2.3,8.1-7.6c-5.2-23.2-15.6-45.8-15.6-45.8C560.2,348.7,570.1,326.6,575.9,303.4L575.9,303.4z M372.3,340.6
		c-6.9,0-12.7-5.8-12.7-12.7s5.8-12.7,12.7-12.7s12.7,5.8,12.7,12.7S379.3,340.6,372.3,340.6z"/>
	<path d="M341,259.4c5.8-21.4-11-30.8-23.8-28.4c-12.7,2.3-16.8,14.5-16.8,14.5s-4-12.2-16.8-14.5s-29.6,7.6-23.8,28.4
		c6.4,22.6,25,23.8,37.1,40.6c1.8,2.3,5.2,2.3,7.6,0C316.1,283.1,335.2,282,341,259.4L341,259.4z"/>
</g>
</svg>
