<?xml version="1.0" encoding="utf-8"?>
<!-- Generator: Adobe Illustrator 23.0.6, SVG Export Plug-In . SVG Version: 6.00 Build 0)  -->
<svg version="1.1" id="Layer_1" xmlns="http://www.w3.org/2000/svg" xmlns:xlink="http://www.w3.org/1999/xlink" x="0px" y="0px"
	 viewBox="0 0 600 600" style="enable-background:new 0 0 600 600;" xml:space="preserve">
<style type="text/css">
	.st0{fill:#FFFFFF;}
</style>
<g>
	<path class="st0" d="M45.2,190.8c18.5,0,35.8-7.3,51-21.3c15.1,14,32.5,21.3,51,21.3c18.5,0,35.8-7.8,51-21.3
		c15.1,14,32.5,21.3,51,21.3c17.9,0,35.8-7.8,51-21.3c15.1,14,32.5,21.3,51,21.3c18.5,0,35.8-7.8,51-21.3c15.1,14,32.5,21.3,51,21.3
		h0.6c17.9,0,35.8-7.8,51-21.3c15.1,14,32.5,21.3,51,21.3c6.2,0,11.2-5,11.2-11.2c0-6.2-5-11.2-11.2-11.2c-19,0-33.6-12.3-42.6-22.4
		c-4.5-5-12.9-5-17.4,0c-8.4,10.1-23,22.4-42.6,22.4h-0.6c-19,0-33.6-12.3-42.6-22.4c-4.5-5-12.9-5-17.4,0
		c-8.4,10.1-23,22.4-42.6,22.4c-19,0-33.6-12.3-42.6-22.4c-2.2-2.8-5-3.9-8.4-3.9c-3.4,0-6.7,1.7-8.4,3.9
		c-8.4,10.1-23,22.4-42.6,22.4c-19,0-33.6-12.3-42.6-22.4c-4.5-5-12.9-5-17.4,0c-8.4,10.1-23,22.4-42.6,22.4
		c-19,0-33.6-12.3-42.6-22.4c-2.2-2.8-5-3.9-8.4-3.9c-3.4,0-6.7,1.7-8.4,3.9c-9,10.1-23,22.4-42.6,22.4c-6.2,0-11.2,5-11.2,11.2
		C34,185.7,39,190.8,45.2,190.8L45.2,190.8z"/>
	<path class="st0" d="M218.2,270.3c-2.2-15.1-15.1-28.6-31.9-28.6c-19-0.6-44.8,2.2-72.2,12.9c-2.8,1.1-3.9,5-1.7,7.3
		c4.5,5.6,6.7,10.6,7.8,15.7c-16.2,8.4-28.6,19-38.1,28.6C73.8,296,60.9,283.7,42.4,277c-4.5-1.7-9,2.2-7.8,7.3
		c5,22.4,15.1,44.2,15.1,44.2s-9.5,21.8-15.1,44.2c-1.1,4.5,3.4,9,7.8,7.3c19.6-7.3,32.5-20.2,40.9-30.8
		c15.1,14,38.1,31.9,65.5,39.8c0.6,10.1-2.8,19-5.6,24.1c-1.1,2.8,0.6,5.6,3.4,5.6c29.1,0,44.2-17.4,50.4-27.4
		c32.5-6.7,59.9-27.4,76.7-43.1c11.8-11.2,11.8-29.7,0.6-40.9C261.9,294.4,242.9,279.2,218.2,270.3L218.2,270.3z M230.6,319.6
		c-6.7,0-12.3-5.6-12.3-12.3s5.6-12.3,12.3-12.3s12.3,5.6,12.3,12.3S237.3,319.6,230.6,319.6z"/>
	<path class="st0" d="M566,283.7c1.1-4.5-3.4-9-7.8-7.3c-18.5,6.7-31.9,19-39.8,29.1c-9.5-9.5-21.8-20.2-38.1-28.6
		c1.1-5,3.4-10.1,7.8-15.7c2.2-2.2,1.1-6.2-1.7-7.3c-27.4-10.6-53.2-13.4-72.2-12.9c-17.4,0.6-30.2,13.4-31.9,28.6
		c-24.6,9-43.1,23.5-56,36.4c-11.2,11.2-11.2,29.7,0.6,40.9c16.8,15.7,44.2,36.4,76.7,43.1c6.2,10.1,21.3,26.9,50.4,27.4
		c2.8,0,5-2.8,3.4-5.6c-2.8-5-5.6-13.4-5.6-24.1c27.4-7.8,51-25.2,65.5-39.8c7.8,10.6,21.3,23.5,40.9,30.8c4.5,1.7,9-2.2,7.8-7.3
		c-5-22.4-15.1-44.2-15.1-44.2C550.9,327.4,560.4,306.1,566,283.7L566,283.7z M369.4,319.6c-6.7,0-12.3-5.6-12.3-12.3
		s5.6-12.3,12.3-12.3s12.3,5.6,12.3,12.3S376.2,319.6,369.4,319.6z"/>
	<path class="st0" d="M339.2,241.2c5.6-20.7-10.6-29.7-23-27.4c-12.3,2.2-16.2,14-16.2,14s-3.9-11.8-16.2-14
		c-12.3-2.2-28.6,7.3-23,27.4c6.2,21.8,24.1,23,35.8,39.2c1.7,2.2,5,2.2,7.3,0C315.1,264.1,333.6,263,339.2,241.2L339.2,241.2z"/>
</g>
</svg>
