<?xml version="1.0" encoding="utf-8"?>
<!-- Generator: Adobe Illustrator 23.0.6, SVG Export Plug-In . SVG Version: 6.00 Build 0)  -->
<svg version="1.1" id="Layer_1" xmlns="http://www.w3.org/2000/svg" xmlns:xlink="http://www.w3.org/1999/xlink" x="0px" y="0px"
	 viewBox="0 0 600 600" style="enable-background:new 0 0 600 600;" xml:space="preserve">
<style type="text/css">
	.st0{fill:#FFFFFF;}
</style>
<g>
	<path class="st0" d="M53.1,400.5l49.2-59.6c12.1-14.4,21.4-15.7,26.8-15.7h8.4v35.2c0,16.7,0,16.7,16.7,16.7s16.7,0,16.7-16.7
		v-35.2h33.2v72c0,16.7,0,16.7,16.7,16.7s16.7,0,16.7-16.7v-72h33.2v92.1c0,16.7,0,16.7,16.7,16.7s16.7,0,16.7-16.7v-92.1h33.2v92.1
		c0,16.7,0,16.7,16.7,16.7c16.7,0,16.7,0,16.7-16.7v-92.1h34.5v100.5c104.8,0,167.4-100.5,167.4-125.6s-62.6-125.6-167.4-125.6
		v100.5h-34.5v-92.1c0-16.7,0-16.7-16.7-16.7c-16.7,0-16.7,0-16.7,16.7v92.1h-33.2v-92.1c0-16.7,0-16.7-16.7-16.7s-16.7,0-16.7,16.7
		v92.1h-33.2v-75.3c0-16.7,0-16.7-16.7-16.7s-16.7,0-16.7,16.7v75.3h-33.2V233c0-16.7,0-16.7-16.7-16.7s-16.7,0-16.7,16.7v41.9h-8.4
		c-5.4,0-14.7-1.3-26.8-15.7l-49.2-59.6c-25.4,38.2-35.5,68.6-0.7,100.5C13.9,336.8,23.9,373,53.1,400.5z M445.9,268.9
		c0-13.7,11.4-25.1,25.5-25.1c14.1,0,25.5,11.4,25.5,25.1c0,14.1-11.4,25.5-25.5,25.5C457.2,294.3,445.9,282.9,445.9,268.9z"/>
</g>
</svg>
