<?xml version="1.0" encoding="utf-8"?>
<!-- Generator: Adobe Illustrator 23.0.6, SVG Export Plug-In . SVG Version: 6.00 Build 0)  -->
<svg version="1.1" id="Layer_1" xmlns="http://www.w3.org/2000/svg" xmlns:xlink="http://www.w3.org/1999/xlink" x="0px" y="0px"
	 viewBox="0 0 700 700" style="enable-background:new 0 0 700 700;" xml:space="preserve">
<style type="text/css">
	.st0{fill:#FFFFFF;}
</style>
<g>
	<path class="st0" d="M353.7,528.3c12.7-5.6,23.4-15,30.6-26.9c-8.3-1.9-16.9-2.6-25.5-2.1c-22,1.6-39.2,12.1-51.1,31.2
		c-0.2,7.6,0.6,48.6,41.4,60c4.1-13.8,3-28.6-3.1-41.6c-1.7-3.8-1.9-8.1-0.4-11.9C347,533.1,349.9,530,353.7,528.3L353.7,528.3z"/>
	<path class="st0" d="M150.9,322.9c2.5,0.7,4.1,3.2,3.6,5.7c0,0.1,0,0.2-0.1,0.2c-2.5,12.3-3.7,24.8-3.8,37.4
		c-0.1,44.5,19.3,89.1,53.3,122.2c27.2,26.5,57.5,37.5,94,48.2c-0.1-2.1-0.2-3.8-0.2-5.1c-24.2-17.7-43.6-42.4-53.5-68.2h0
		c-9.8-25.5-10.1-53.7-0.7-79.4c2.3-6.6,5.4-12.9,9.1-18.8c0.9-1.4,2.4-2.3,4-2.3c1.6-0.1,3.2,0.7,4.2,2c6.8,9.2,20.3,12,30.4,12.6
		v0c3.3,0.2,6.7,0.2,10,0.1c-5-5.7-9.4-13.5-13.3-23.4v0c-2.8-7.2-5-14.6-6.6-22.2c-0.3-1.6,0.2-3.2,1.3-4.3
		c5.9-7,12.6-15.5,17.5-25.5c9.6-19.3,9.7-38.9,0.3-53.5c-9.4-14.7-27.4-22.8-49.2-22.2c-7.5,0.2-14.8,1.6-21.9,4.1
		c-22.6,7.8-41.1,23.2-55,45.9c-0.5,0.9-1.2,1.7-2.1,2.1c-27.1,13.7-45.4,28.1-64,46.6C121.2,322.1,138.5,319.5,150.9,322.9
		L150.9,322.9z M284.1,263.3c3.3,0,6.3,2,7.6,5.1c1.3,3.1,0.6,6.6-1.8,9c-2.3,2.4-5.9,3.1-9,1.8c-3.1-1.3-5.1-4.3-5.1-7.6
		C275.9,267,279.6,263.3,284.1,263.3L284.1,263.3z M200,290.9c1.4-2.3,4.4-3.1,6.7-1.8c2.3,1.3,3.2,4.3,1.9,6.7
		c-45.7,79.6-7.6,145.6,32.5,187c1.9,2,1.8,5.1-0.1,7s-5.1,1.8-7-0.1c-25.6-26.5-42.7-54.4-50.8-83.1
		C172.3,368.1,178,329.2,200,290.9L200,290.9z"/>
	<path class="st0" d="M349.5,109.5c-4.1,13.8-3,28.6,3.1,41.6c1.7,3.8,1.9,8.1,0.4,11.9c-1.5,3.9-4.4,7-8.1,8.7
		c-12.7,5.6-23.4,15-30.6,26.9c8.3,1.9,16.9,2.6,25.5,2.1c22-1.6,39.2-12.1,51.1-31.2C391.1,161.9,390.3,120.9,349.5,109.5
		L349.5,109.5z"/>
	<path class="st0" d="M547.6,377.1c-2.5-0.7-4.1-3.2-3.6-5.8c0-0.1,0-0.1,0-0.2c2.5-12.3,3.7-24.8,3.8-37.4
		c0.1-44.5-19.3-89.1-53.3-122.2c-27.2-26.5-57.5-37.5-94-48.2c0.1,2.1,0.2,3.8,0.2,5.1c24.2,17.7,43.6,42.4,53.5,68.2
		c9.8,25.5,10.1,53.7,0.7,79.4c-2.3,6.6-5.4,12.9-9.1,18.8c-0.7,1.1-1.8,1.9-3.1,2.2c-1.3,0.3-2.6,0.1-3.8-0.6
		c-0.5-0.3-1-0.8-1.3-1.3c-6.8-9.2-20.3-12-30.4-12.6v0c-3.3-0.2-6.7-0.2-10-0.1c5,5.7,9.4,13.5,13.3,23.4c2.8,7.2,5,14.6,6.6,22.2
		c0.3,1.6-0.2,3.2-1.3,4.3c-5.9,7-12.6,15.5-17.5,25.5c-9.6,19.3-9.7,38.9-0.3,53.5c9.4,14.7,27.4,22.8,49.2,22.2
		c7.5-0.2,14.8-1.6,21.9-4.1c22.6-7.8,41.1-23.2,55-45.9c0.5-0.9,1.2-1.7,2.1-2.1c27.1-13.7,45.4-28.1,64-46.6
		C577.4,377.9,560.1,380.5,547.6,377.1L547.6,377.1z M413.7,425.6c-3.3,0-6.3-2-7.6-5.1c-1.3-3.1-0.6-6.6,1.8-9
		c2.4-2.3,5.9-3.1,9-1.8c3.1,1.3,5.1,4.3,5.1,7.6C421.9,421.9,418.3,425.6,413.7,425.6L413.7,425.6z M498.6,409.1
		c-1.4,2.4-4.4,3.2-6.7,1.8c-2.4-1.4-3.2-4.4-1.8-6.7c19.6-34,25.4-68.5,17.4-102.4c-6.2-26.3-20.6-52.2-42.8-77.1h0
		c-1.8-2-1.6-5.1,0.4-7c2-1.8,5.1-1.6,7,0.4C509.8,260.5,545.2,328,498.6,409.1L498.6,409.1z"/>
	<path class="st0" d="M127.9,452.1c-6.2-17.3-9.3-35.5-9.3-53.8c0-1.3-0.5-2.6-1.4-3.5s-2.2-1.4-3.5-1.4h0c-2.7,0-4.9,2.2-4.9,4.9
		c0,19.5,3.3,38.8,9.9,57.1c0.9,2.6,3.7,3.9,6.3,3C127.4,457.5,128.8,454.7,127.9,452.1L127.9,452.1z"/>
	<path class="st0" d="M171.9,520.6c-9.8-9.6-18.6-20.3-26-31.9c-1.5-2.3-4.5-2.9-6.8-1.5c-2.3,1.5-3,4.5-1.5,6.8
		c7.9,12.2,17.1,23.5,27.4,33.6c15.3,15,32.5,26.2,54,35.4c1.2,0.5,2.6,0.5,3.8,0c1.2-0.5,2.2-1.4,2.7-2.6c0.5-1.2,0.5-2.6,0-3.8
		c-0.5-1.2-1.4-2.2-2.6-2.7C202.5,545.3,186.3,534.7,171.9,520.6L171.9,520.6z"/>
	<path class="st0" d="M250.4,564.1c-1.2-0.4-2.6-0.3-3.8,0.3c-1.2,0.6-2,1.6-2.4,2.9c-0.8,2.6,0.6,5.4,3.2,6.2
		c7.3,2.3,14.5,4.4,20.6,6.2h0c2.6,0.8,5.4-0.8,6.1-3.4s-0.8-5.4-3.4-6.1C264.7,568.5,257.6,566.4,250.4,564.1L250.4,564.1z"/>
	<path class="st0" d="M91.8,468c-0.5-2.7-3.1-4.4-5.8-3.9c-2.7,0.5-4.4,3.1-3.9,5.8c3.8,19.1,10.8,37.4,20.8,54.1
		c1.4,2.3,4.4,3.1,6.8,1.7c2.3-1.4,3.1-4.4,1.7-6.8C102,503.2,95.4,486,91.8,468L91.8,468z"/>
	<path class="st0" d="M165.2,586.6c2.2,0,4.1-1.4,4.7-3.5c0.6-2.1-0.2-4.3-2-5.5c-11.5-7.5-22.2-16.3-31.7-26.2c-1.9-2-5-2-7-0.1
		c-2,1.9-2,5-0.1,7c10.1,10.4,21.3,19.7,33.4,27.6C163.3,586.3,164.2,586.6,165.2,586.6L165.2,586.6z"/>
	<path class="st0" d="M575.1,239.1c-1.2,0.4-2.2,1.3-2.8,2.5c-0.6,1.2-0.6,2.5-0.2,3.8c6.2,17.3,9.3,35.5,9.3,53.8
		c0,1.3,0.5,2.6,1.4,3.5c0.9,0.9,2.2,1.4,3.5,1.5h0c2.7,0,4.9-2.2,4.9-4.9c0-19.5-3.3-38.8-9.9-57.1
		C580.5,239.6,577.7,238.2,575.1,239.1L575.1,239.1z"/>
	<path class="st0" d="M477.2,143.6c20.3,8.7,36.5,19.3,51,33.4c9.9,9.6,18.6,20.3,26,31.9c1.5,2.3,4.5,3,6.8,1.5
		c2.3-1.5,2.9-4.5,1.5-6.8c-7.9-12.2-17.1-23.5-27.4-33.6c-15.3-15-32.5-26.2-54-35.4c-1.2-0.5-2.6-0.5-3.8-0.1
		c-1.2,0.5-2.2,1.4-2.7,2.6c-0.5,1.2-0.5,2.6,0,3.8C475,142.1,476,143.1,477.2,143.6L477.2,143.6z"/>
	<path class="st0" d="M431.9,117.9c-2.6-0.7-5.3,0.8-6.1,3.4c-0.8,2.6,0.7,5.3,3.3,6.1c6.1,1.8,13.2,3.9,20.4,6.1v0
		c2.6,0.8,5.4-0.6,6.2-3.2c0.8-2.6-0.6-5.4-3.2-6.2C445.3,121.8,438.1,119.7,431.9,117.9L431.9,117.9z"/>
	<path class="st0" d="M597.1,173.6c-1.4-2.3-4.4-3.1-6.8-1.7c-2.3,1.4-3.1,4.4-1.7,6.8c9.4,15.7,16,33,19.6,51c0.5,2.3,2.5,4,4.8,4
		c0.3,0,0.6,0,1-0.1c2.7-0.5,4.4-3.1,3.9-5.8C614.1,208.6,607.1,190.3,597.1,173.6L597.1,173.6z"/>
	<path class="st0" d="M530.7,113.2c-1.5,2.3-0.8,5.3,1.4,6.8c11.5,7.5,22.2,16.3,31.7,26.2c1.9,2,5,2,7,0.1c0.9-0.9,1.5-2.2,1.5-3.5
		c0-1.3-0.5-2.6-1.4-3.5c-10.1-10.4-21.3-19.7-33.4-27.6C535.2,110.3,532.2,110.9,530.7,113.2L530.7,113.2z"/>
</g>
</svg>
