<?xml version="1.0" encoding="utf-8"?>
<!-- Generator: Adobe Illustrator 23.0.6, SVG Export Plug-In . SVG Version: 6.00 Build 0)  -->
<svg version="1.1" id="Layer_1" xmlns="http://www.w3.org/2000/svg" xmlns:xlink="http://www.w3.org/1999/xlink"
	 viewBox="0 0 700 700" style="enable-background:new 0 0 700 700;" xml:space="preserve">
<style type="text/css">
	.st0{fill:#FFFFFF;}
</style>
<g>
	<path class="st0" d="M217.4,258.1c-4.8-1.6-10.1,0.1-13.1,4.2l-30.9,42l18.9,13.9l9.7-13.2v5.6c0,54.1-14.7,58.2-35.5,58.2
		c-17.3,0-28.1-6.5-28.1-38.8V137.9c10.9-4.6,18.5-15.3,18.5-27.9c0-16.7-13.5-30.3-30.3-30.3c-16.7,0-30.2,13.5-30.2,30.3
		c0,12.6,7.6,23.3,18.5,27.9V330c0,41.2,17.3,62.2,51.5,62.2c51.9,0,59-41.3,59-81.7v-41.3C225.5,264.1,222.3,259.7,217.4,258.1
		L217.4,258.1z"/>
	<path class="st0" d="M338.8,315.3c10.3-22.1,11.4-47.7,3.4-73.3c-52.3,1-88.8,33.4-88.8,33.4s-1.4,48.7,31.4,89.5
		C309.6,354.6,328.5,337.3,338.8,315.3L338.8,315.3z M301.1,297.2c-6.3-3-9.1-10.6-6.1-16.9c2.9-6.4,10.6-9.1,16.9-6.2
		c6.4,3,9.1,10.6,6.2,16.9C315.1,297.4,307.5,300.1,301.1,297.2L301.1,297.2z"/>
	<path class="st0" d="M525.2,394.1C471.5,289.6,414.7,252.3,367,244c6.8,28.2,4.6,56.4-6.9,81.2c-11.6,24.7-31.7,44.5-57.7,57.4
		c37.1,31.2,102.1,50.8,216.8,24.7c-1.4,16-0.6,53.4,34.8,72.9l1.2-64.1l48.4-42.1C565.8,359.4,536.5,382.8,525.2,394.1L525.2,394.1
		z"/>
	<path class="st0" d="M531.5,281.4c0,0-23.9-30.7-59-48.8c-22.8-11.7-42.7-2.9-53.9,4.9c21,10.9,41.1,26.6,60.2,47L531.5,281.4z"/>
	<path class="st0" d="M344.3,431.5c5.3,12.5,17.7,31.2,45.9,41c0,0,2.3-13.9-4.6-32.1C370.9,438.6,357.1,435.6,344.3,431.5
		L344.3,431.5z"/>
</g>
</svg>
