<?xml version="1.0" encoding="utf-8"?>
<!-- Generator: Adobe Illustrator 23.0.6, SVG Export Plug-In . SVG Version: 6.00 Build 0)  -->
<svg version="1.1" id="Layer_1" xmlns="http://www.w3.org/2000/svg" xmlns:xlink="http://www.w3.org/1999/xlink" x="0px" y="0px"
	 viewBox="0 0 600 600" style="enable-background:new 0 0 600 600;" xml:space="preserve">
<style type="text/css">
	.st0{fill:#FFFFFF;}
</style>
<g>
	<path class="st0" d="M547.4,250.8c-26.9-26.9-67.2-58.8-119.3-77.3c-4.5-33-31.9-61-68.3-61.6c-41.4-1.1-95.2,4.5-154.6,27.4
		c-6.2,2.2-8.4,10.6-3.9,16.2c9.5,11.8,15.1,23,17.4,33c-34.2,17.9-61.6,40.9-81.8,61c-17.4-21.8-45.4-48.2-85.1-62.7
		c-9.5-3.4-19.6,5.6-17.4,15.1c11.2,47.6,31.9,94.6,31.9,94.6s-20.7,46.5-31.9,94.6c-2.2,10.1,7.3,19,17.4,15.1
		c41.4-15.1,70-42.6,87.4-65.5c31.9,30.2,81.8,67.8,140.6,84.6c0.6,21.8-6.2,40.3-11.8,51c-2.8,5.6,1.7,11.8,7.8,11.8
		c62.7-0.6,94.6-37,108.1-58.2c69.4-14,127.7-58.2,164.1-91.8C572,314.6,572,274.9,547.4,250.8L547.4,250.8z M454.4,278.2
		c-14.6,0-26.3-11.8-26.3-26.3c0-14.6,11.8-26.3,26.3-26.3c14.6,0,26.3,11.8,26.3,26.3C480.7,266.5,469,278.2,454.4,278.2z"/>
</g>
</svg>
