<?xml version="1.0" encoding="utf-8"?>
<!-- Generator: Adobe Illustrator 23.0.6, SVG Export Plug-In . SVG Version: 6.00 Build 0)  -->
<svg version="1.1" id="Layer_1" xmlns="http://www.w3.org/2000/svg" xmlns:xlink="http://www.w3.org/1999/xlink" x="0px" y="0px"
	 viewBox="0 0 600 600" style="enable-background:new 0 0 600 600;" xml:space="preserve">
<style type="text/css">
	.st0{fill:#000000;}
</style>
<g>
	<path class="st0" d="M556.3,226.6c-19,0-33.6-12.3-42.6-22.4c-4.5-5-12.9-5-17.4,0c-6.7,8.4-17.4,17.4-31.4,21.3l0-75.6
		c0-6.2-5-11.2-11.2-11.2c-6.2,0-11.2,5-11.2,11.2v75.6c-13.4-3.4-24.1-12.9-31.4-21.3c-4.5-5-12.9-5-17.4,0
		c-8.4,10.1-23,22.4-42.6,22.4c-19,0-33.6-12.3-42.6-22.4c-2.2-2.8-5-3.9-8.4-3.9s-6.7,1.7-8.4,3.9c-8.4,10.1-23,22.4-42.6,22.4
		c-19,0-33.6-12.3-42.6-22.4c-4.5-5-12.9-5-17.4,0c-8.4,10.1-23,22.4-42.6,22.4c-19,0-33.6-12.3-42.6-22.4c-2.2-2.8-5-3.9-8.4-3.9
		s-6.7,1.7-8.4,3.9c-9,10.1-23,22.4-42.6,22.4c-6.2,0-11.2,5-11.2,11.2S38.9,249,45,249c18.5,0,35.8-7.3,51-21.3
		c15.1,14,32.5,21.3,51,21.3c17.9,0,35.8-7.8,51-21.3c15.1,14,32.5,21.3,51,21.3c18.5,0,35.8-7.8,51-21.3c15.1,14,32.5,21.3,51,21.3
		c17.9,0,35.8-7.8,51-21.3c11.8,11.2,25.8,17.9,39.8,20.2v128.8c0,19.6-15.1,35.3-33.6,35.3c-17.9,0-31.9-14.6-33-33h11.8
		c4.5,0,8.4-2.8,10.1-6.7c1.7-3.9,1.1-9-1.7-12.3l-23.5-27.4c-3.4-3.4-7.8-5-12.3-3.4c-4.5,1.7-7.3,6.2-7.3,10.6v36.4
		c0,31.9,25.2,58.2,56,58.2s56-25.8,56-58.2V247.4c14-2.2,28-9.5,39.8-20.2c15.1,14,32.5,21.3,51,21.3c6.2,0,11.2-5,11.2-11.2
		C567.5,231.7,562.5,226.6,556.3,226.6L556.3,226.6z"/>
	<path class="st0" d="M252.2,315.1c-2.2-15.1-14.6-28-31.9-28.6c-19-0.6-44.2,2.2-71.7,12.9c-2.8,1.1-3.9,5-1.7,7.3
		c4.5,5.6,6.7,10.6,7.8,15.7c-15.7,8.4-28.6,19-38.1,28c-7.8-10.1-20.7-22.4-39.8-29.1c-4.5-1.7-9,2.2-7.8,7.3
		c5,22.4,14.6,43.7,14.6,43.7s-9.5,21.8-14.6,43.7c-0.6,5,3.9,9,8.4,7.3c19-6.7,32.5-19.6,40.3-30.2c15.1,14,37.5,31.4,65,39.2
		c0.6,10.1-2.8,18.5-5.6,23.5c-1.1,2.2,0.6,5.6,3.4,5.6c29.1,0,43.7-17.4,49.8-26.9c31.9-6.7,59.4-26.9,76.2-42.6
		c11.8-10.6,11.8-29.1,0.6-40.3C295.3,338.6,276.3,324.1,252.2,315.1L252.2,315.1z M264.5,363.8c-6.7,0-12.3-5.6-12.3-12.3
		s5.6-12.3,12.3-12.3s12.3,5.6,12.3,12.3S271.3,363.8,264.5,363.8z"/>
</g>
</svg>
