<?xml version="1.0" encoding="utf-8"?>
<!-- Generator: Adobe Illustrator 23.0.6, SVG Export Plug-In . SVG Version: 6.00 Build 0)  -->
<svg version="1.1" id="Layer_1" xmlns="http://www.w3.org/2000/svg" xmlns:xlink="http://www.w3.org/1999/xlink" x="0px" y="0px"
	 viewBox="0 0 600 600" style="enable-background:new 0 0 600 600;" xml:space="preserve">
<style type="text/css">
	.st0{fill:#FFFFFF;}
</style>
<g>
	<path class="st0" d="M441.5,354.6c0,31.2,9.5,60.7,26.7,85.8c51.2-32.3,80.2-78,82.4-81.3c1.7-2.8,1.7-6.1,0-7.8
		c-1.7-2.8-31.2-49-81.9-81.9C451,293.9,442.1,323.9,441.5,354.6L441.5,354.6z M486.1,346.8c4.5,0,7.8,3.3,7.8,7.8
		c0,4.5-3.3,7.8-7.8,7.8c-4.5,0-8.4-3.9-7.8-7.8C477.7,350.7,481.6,346.8,486.1,346.8z"/>
	<path class="st0" d="M426,354.6c0-33.4,10.6-66.3,29-93.6c-25.6-13.4-55.7-23.4-89.1-23.4c-80.2,0-160.4,84.7-203.3,86.3
		c-13.4,0-24.5-7.8-37.9-16.7c-16.7-12.3-37.9-26.7-69.1-26.7c-3.3,0-6.1,1.7-6.7,4.5c-1.7,2.8-0.6,6.1,1.7,8.4
		c10,11.1,34.5,43.4,34.5,61.3c0,17.8-25.1,50.7-35.1,61.8c-2.2,2.2-2.2,5.6-1.7,8.4c1.1,2.2,3.3,4.5,6.7,4.5
		c55.7,0,75.7-44.6,106.9-43.4c42.3,1.1,122.5,85.8,203.3,86.3c34.5,0,64-9.5,89.1-23.4C436.5,420.9,426.5,388.6,426,354.6
		L426,354.6z M377.5,417.5c-11.7-15-17.8-34.5-19.5-55.1h-31.2c1.1,10,4.5,20.1,10.6,28.4c2.2,3.3,1.7,8.4-1.1,11.1
		c-3.9,2.8-8.4,1.7-11.1-1.1c-8.4-10.6-12.8-23.9-13.9-37.3H280c0.6,6.1,3.3,12.3,6.7,16.7c2.2,3.3,1.7,8.4-1.1,11.1
		c-3.9,2.8-8.4,1.7-11.1-1.1c-5.6-7.8-8.9-16.7-10-25.6H250c-4.5,0-7.8-3.3-7.8-7.8c0-4.5,3.3-7.8,7.8-7.8h14.5
		c1.7-9.5,4.5-18.9,10-25.6c2.2-3.3,7.8-4.5,11.1-1.1c3.9,2.8,4.5,7.8,1.1,11.1c-3.3,4.5-5.6,10-6.7,16.7h31.2
		c1.1-13.4,5.6-26.7,13.9-37.3c2.2-3.3,7.8-4.5,11.1-1.1c3.9,2.8,4.5,7.8,1.1,11.1c-5.6,7.8-9.5,17.3-10.6,28.4H358
		c1.1-20.1,7.8-40.1,19.5-55.1c2.2-3.3,7.8-4.5,11.1-1.1c3.9,2.8,4.5,7.8,1.1,11.1c-9.5,12.8-15,28.4-16.7,45.7h13.4
		c4.5,0,7.8,3.3,7.8,7.8c0,4.5-3.3,7.8-7.8,7.8H373c1.1,16.7,6.7,32.3,16.2,45.1c2.2,3.3,1.7,8.4-1.1,11.1
		C384.7,421.4,379.7,420.9,377.5,417.5L377.5,417.5z"/>
	<path class="st0" d="M423.7,207.5l-206.6-11.7c-8.9,18.9-31.2,32.3-57.4,31.7H79.5c-4.5,0-7.8-3.3-7.8-7.8s3.3-7.8,7.8-7.8h72.4
		l0.6-26.2l-72.4,0c-4.5,0-7.8-3.3-7.8-7.8c0-4.5,3.3-7.8,7.8-7.8l72.4,0v-26.7l-72.4,0c-4.5,0-7.8-3.3-7.8-7.8
		c0-4.5,3.3-7.8,7.8-7.8h80.2c15.6,0,30.6,5,42.9,13.9c6.1,5,11.1,11.1,14.5,17.8l206.1-11.1c18.9-1.1,37.9,11.1,37.3,29.5
		C461,195.8,443.2,208.1,423.7,207.5L423.7,207.5z"/>
</g>
</svg>
