<svg id="Layer_1" data-name="Layer 1" xmlns="http://www.w3.org/2000/svg" viewBox="0 0 530.6 530.6"><title>info</title><path d="M162.4,162.4C58.8,266,58.8,434,162.4,537.6s271.6,103.6,375.2,0,103.6-271.6,0-375.2S266,58.8,162.4,162.4ZM360.64,196C383,196,401,214.48,401,236.88s-18.48,40.88-40.32,40.88c-22.4,0-40.88-18.48-40.88-41.44,0-22.4,18.48-40.32,40.88-40.32Zm57.68,273.84a26.79,26.79,0,0,1-5.6,9.52c-14.56,15.12-32.48,24.08-53.76,24.08-10.08,0-19.61,0-29.68-1.68-16.24-2.24-37-22.4-34.16-43.68q3.35-21.84,6.72-43.68c4.48-25.2,9-51,13.44-76.16,0-1.68.55-3.36.55-5,0-10.64-3.35-14.56-14-15.68a112.13,112.13,0,0,1-13.44-2.24c-5-1.68-7.84-6.16-7.28-10.08.56-4.48,3.36-7.28,9-8.39a51.24,51.24,0,0,1,9.52-.56h77.29c9.51,0,15.12,4.48,15.12,14a113.08,113.08,0,0,1-2.8,23.52c-5,29.12-10.65,57.68-15.68,86.8-1.68,9.52-3.93,19-5,28.56a39.57,39.57,0,0,0,1.12,14c1.68,6.16,6.16,9.52,12.32,9A51.74,51.74,0,0,0,397,467.61c3.92-1.68,7.28-4.48,11.2-5.6,6.72-2.25,11.76,1.67,10.08,7.83Z" transform="translate(-84.7 -84.7)"/></svg>