<svg width="512" height="512" viewBox="0 0 512 512" fill="none" xmlns="http://www.w3.org/2000/svg">
<rect width="512" height="512" rx="256" fill="white"/>
<path fill-rule="evenodd" clip-rule="evenodd" d="M256 99.8401C312.554 99.8401 358.4 145.686 358.4 202.24C358.4 245.702 331.323 282.839 293.119 297.705V412.16L218.879 412.16L218.879 297.705C180.675 282.839 153.6 245.701 153.6 202.24C153.6 145.686 199.446 99.8401 256 99.8401ZM298.239 201.6C298.239 178.625 279.614 160 256.639 160C233.664 160 215.039 178.625 215.039 201.6C215.039 224.575 233.664 243.2 256.639 243.2C279.614 243.2 298.239 224.575 298.239 201.6Z" fill="black"/>
</svg>
