<svg width="640" height="220" viewBox="0 0 640 220" fill="none" xmlns="http://www.w3.org/2000/svg">
<path d="M273.021 81.1935V137.5H261.419L238.796 99.756V137.5H227.194V81.1935H238.796L261.458 118.976V81.1935H273.021Z" fill="white"/>
<path d="M310.715 81.1935V137.5H299.114V81.1935H310.715ZM333.145 105.247V114.297H307.544V105.247H333.145ZM335.852 81.1935V90.2814H307.544V81.1935H335.852Z" fill="white"/>
<path d="M384.53 81.1935V137.5H372.967V81.1935H384.53ZM401.855 81.1935V90.2814H355.913V81.1935H401.855Z" fill="white"/>
<path d="M436.069 81.1935V137.5H424.468V81.1935H436.069ZM469.791 81.1935L447.478 108.999L434.6 122.843L432.512 111.86L441.213 99.9493L455.56 81.1935H469.791ZM456.604 137.5L440.014 111.474L448.599 104.281L470.333 137.5H456.604Z" fill="white"/>
<path d="M528.601 128.451V137.5H498.63V128.451H528.601ZM502.42 81.1935V137.5H490.819V81.1935H502.42ZM524.695 104.126V112.943H498.63V104.126H524.695ZM528.562 81.1935V90.2814H498.63V81.1935H528.562Z" fill="white"/>
<path d="M559.103 81.1935L570.859 106.872L582.615 81.1935H595.261L576.737 117.004V137.5H564.981V117.004L546.419 81.1935H559.103Z" fill="white"/>
<rect x="44" y="44" width="132" height="132" rx="66" fill="white"/>
<rect x="119.569" y="120.56" width="29.7" height="19.14" transform="rotate(90 119.569 120.56)" fill="black"/>
<path fill-rule="evenodd" clip-rule="evenodd" d="M136.4 96.14C136.4 81.5597 124.58 69.74 110 69.74C95.4193 69.74 83.5996 81.5597 83.5996 96.14C83.5996 110.72 95.4193 122.54 110 122.54C124.58 122.54 136.4 110.72 136.4 96.14ZM120.889 95.975C120.889 90.0517 116.088 85.25 110.164 85.25C104.241 85.25 99.4394 90.0517 99.4394 95.975C99.4394 101.898 104.241 106.7 110.164 106.7C116.088 106.7 120.889 101.898 120.889 95.975Z" fill="black"/>
</svg>
