<svg id="Layer_1" data-name="Layer 1" xmlns="http://www.w3.org/2000/svg" viewBox="0 0 504 496.72"><title>notemute</title><path d="M160,184.36H48v224H188l168,140V51.64L188,184.36Zm0,168H104v-112h56Zm56-118.72L300,167V428.52l-84-70Z" transform="translate(-48 -51.64)" style="fill:#fff"/><path d="M438.32,158c76.16,76.16,76.16,201,0,277.2L478.08,475C525.68,426.84,552,363.56,552,296.36a250.38,250.38,0,0,0-73.92-178.08Z" transform="translate(-48 -51.64)" style="fill:#fff"/><path d="M418.72,415.08c65.52-65.52,65.52-171.92,0-237.44L379,217.4a112.21,112.21,0,0,1,0,158.48Z" transform="translate(-48 -51.64)" style="fill:#fff"/></svg>