<?xml version="1.0" encoding="utf-8"?>
<!-- Generator: Adobe Illustrator 23.0.6, SVG Export Plug-In . SVG Version: 6.00 Build 0)  -->
<svg version="1.1" id="Layer_1" xmlns="http://www.w3.org/2000/svg" xmlns:xlink="http://www.w3.org/1999/xlink" x="0px" y="0px"
	 viewBox="0 0 600 600" style="enable-background:new 0 0 600 600;" xml:space="preserve">
<style type="text/css">
	.st0{fill:#FFFFFF;}
</style>
<g>
	<path class="st0" d="M561.5,268C548.6,250,524,222.6,489.3,208c-1.1-18.5-16.2-35.3-37-35.8c-21.8-0.6-50.4,2.2-81.8,14.6
		c-3.4,1.1-4.5,5.6-2.2,9c6.7,8.4,9.5,15.7,9.5,22.4c-16.2,10.1-29.1,22.4-39.2,34.2c-11.2-13.4-28-29.1-52.1-37.5
		c-6.2-2.2-12.3,3.4-11.2,9.5c7.3,30.2,20.2,59.9,20.2,59.9s-13.4,29.7-20.2,59.9c-1.7,6.2,5,11.8,11.2,9.5
		c25.2-9,42.6-25.2,53.2-39.2c15.1,16.8,37,35.8,62.7,46.5c-2.2,10.1-6.7,17.4-10.6,22.4c-1.7,2.2-0.6,6.2,2.8,6.7
		c35.8,6.7,57.1-13.4,63.8-21.8c45.9-7.8,82.9-47,101.4-68.9C567.1,290.4,567.7,276.4,561.5,268L561.5,268z M501,264.6
		c-7.3,0-12.9-5.6-12.9-12.9c0-7.3,5.6-12.9,12.9-12.9c7.3,0,12.9,5.6,12.9,12.9C514.5,258.4,508.3,264.6,501,264.6z"/>
	<path class="st0" d="M334.7,397.3c-0.6-10.6-9-20.2-20.7-20.2c-12.3,0-28.6,1.1-47,8.4c-1.7,0.6-2.2,3.4-1.1,5
		c3.9,4.5,5,9,5.6,12.9c-9,5.6-16.8,12.9-22.4,19.6c-6.2-7.8-16.2-16.2-29.7-21.3c-3.4-1.1-7.3,1.7-6.2,5.6
		c3.9,17.4,11.8,34.2,11.8,34.2s-7.3,16.8-11.8,34.2c-1.1,3.9,2.8,6.7,6.2,5.6c14-5,24.1-14.6,30.2-22.4c9,9.5,21.3,20.2,35.8,26.3
		c-1.1,5.6-3.9,10.1-6.2,12.9c-1.1,1.7,0,3.4,1.7,3.9c20.2,3.9,32.5-7.8,36.4-12.3c26.9-4.5,49.3-28.6,58.8-40.9
		c3.4-3.9,3.4-10.6,0.6-15.1C369.4,423.1,354.9,406.3,334.7,397.3L334.7,397.3z M341.4,429.8c-3.9,0-7.3-3.4-7.3-7.3
		s3.4-7.3,7.3-7.3s7.3,3.4,7.3,7.3C348.7,426.4,345.4,429.8,341.4,429.8z"/>
	<path class="st0" d="M238.4,329c5-6.2,5-15.7,0.6-21.8c-9.5-12.9-26.9-32.5-51.5-43.1c-0.6-13.4-11.8-25.2-26.3-25.8
		c-15.7-0.6-36.4,1.7-58.8,10.1c-2.2,1.1-3.4,3.9-1.7,6.2c5,6.2,6.7,11.2,6.7,16.2c-11.8,7.3-20.7,16.2-28,24.6
		c-7.8-9.5-20.2-20.7-37-26.9c-4.5-1.7-9,2.2-7.8,6.7c5,21.8,14.6,43.1,14.6,43.1s-9.5,21.3-14.6,43.1c-1.1,4.5,3.4,8.4,7.8,6.7
		c17.9-6.7,30.2-17.9,38.1-28c11.2,11.8,26.3,25.8,45.4,33.6c-1.7,7.3-5,12.9-7.8,15.7c-1.7,1.7-0.6,4.5,2.2,5
		c25.8,5,40.9-9.5,45.9-15.7C198.6,373.2,225.5,344.7,238.4,329L238.4,329z M195.8,304.4c-5,0-9.5-4.5-9.5-9.5c0-5,4.5-9.5,9.5-9.5
		c5,0,9.5,4.5,9.5,9.5C205.4,300.4,200.9,304.4,195.8,304.4z"/>
	<path class="st0" d="M130.9,194.6c-1.1,3.9,2.8,6.7,6.2,5.6c14-5,24.1-14.6,30.2-22.4c9,9.5,21.3,20.2,35.8,26.3
		c-1.1,5.6-3.9,10.1-6.2,12.9c-1.1,1.7,0,3.4,1.7,3.9c20.2,3.9,32.5-7.8,36.4-12.3c26.9-4.5,49.3-28.6,58.8-40.9
		c3.4-3.9,3.4-10.6,0.6-15.1c-7.3-10.1-21.3-26.9-42-35.3c-0.6-10.6-9-20.2-20.7-20.2c-12.3,0-28.6,1.1-47,8.4
		c-1.7,0.6-2.2,3.4-1.1,5c3.9,4.5,5,9,5.6,12.9c-9,5.6-16.8,12.9-22.4,19.6c-6.2-7.8-16.2-16.2-29.7-21.3c-3.4-1.1-7.3,1.7-6.2,5.6
		c3.9,17.4,11.8,34.2,11.8,34.2C142.6,161.6,135.4,177.2,130.9,194.6L130.9,194.6z M259.1,134.7c3.9,0,7.3,3.4,7.3,7.3
		s-3.4,7.3-7.3,7.3s-7.3-3.4-7.3-7.3S255.2,134.7,259.1,134.7z"/>
</g>
</svg>
