<?xml version="1.0" encoding="utf-8"?>
<!-- Generator: Adobe Illustrator 23.0.6, SVG Export Plug-In . SVG Version: 6.00 Build 0)  -->
<svg version="1.1" id="Layer_1" xmlns="http://www.w3.org/2000/svg" xmlns:xlink="http://www.w3.org/1999/xlink" x="0px" y="0px"
	 viewBox="0 0 50 50" style="enable-background:new 0 0 50 50;" xml:space="preserve">
<g>
	<path d="M47.6,25L37.4,36.3l-0.2-0.2l-4.7-5.2L27.3,25h6.8c0-1.6-0.3-3.1-0.9-4.5c-1.8-4.6-6.3-7.9-11.6-7.9
		c-6.9,0-12.4,5.6-12.4,12.4c0,6.9,5.6,12.4,12.4,12.4c3.1,0,5.9-1.1,8.1-3l4.5,5c-3.4,2.9-7.8,4.7-12.6,4.7
		C11,44.2,2.4,35.6,2.4,25C2.4,14.4,11,5.8,21.6,5.8c9.1,0,16.6,6.3,18.7,14.7c0.4,1.5,0.6,3,0.6,4.5L47.6,25z"/>
</g>
</svg>
