<?xml version="1.0" encoding="utf-8"?>
<!-- Generator: Adobe Illustrator 23.0.6, SVG Export Plug-In . SVG Version: 6.00 Build 0)  -->
<svg version="1.1" id="Layer_1" xmlns="http://www.w3.org/2000/svg" xmlns:xlink="http://www.w3.org/1999/xlink" x="0px" y="0px"
	 viewBox="0 0 700 700" style="enable-background:new 0 0 700 700;" xml:space="preserve">
<style type="text/css">
	.st0{fill:none;stroke:#000000;stroke-width:18;stroke-linecap:round;stroke-linejoin:round;stroke-miterlimit:10;}
</style>
<path class="st0" d="M300.4,443.2c-16.4,0-29.7-10.9-29.7-24.4c0-13.5,13.3-24.4,29.7-24.4c11.3,0,21.2,5.2,26.2,12.9"/>
<path class="st0" d="M300.3,443.2c16.4,0,29.7,10.9,29.7,24.4c0,13.5-13.3,24.4-29.7,24.4c-11.3,0-21.2-5.2-26.2-12.9"/>
<path class="st0" d="M298.7,371.2v144"/>
<path d="M568.3,170.9l-406.5,0c-7.8,0-14-6.3-14-14c0-7.7,6.3-14,14-14l353.4-0.1c9.3,0,16.8-7.5,16.8-16.8
	c0-9.3-7.5-16.8-16.8-16.8H150.6c-21.6,0-39.2,17.6-39.2,39.2v353.5c0,11.2,9.1,20.3,20.3,20.3h43.1c26.3,41.3,72.4,68.8,124.9,68.8
	c52.5,0,98.6-27.5,124.9-68.8h143.9c11.2,0,20.3-9.1,20.3-20.3l0-310.7C588.6,180,579.5,170.9,568.3,170.9L568.3,170.9z
	 M299.6,562.9c-66.1,0-119.9-53.8-119.9-119.9c0-5,0.3-10,0.9-14.9c7.4-59.9,58.6-105,119-105c15.5,0,30.5,2.9,44.7,8.6
	c45.7,18.4,75.2,62.1,75.2,111.3C419.5,509.1,365.7,562.9,299.6,562.9L299.6,562.9z M557.6,307.9H447.8c-20.8,0-37.6-16.8-37.6-37.6
	c0-20.8,16.8-37.6,37.6-37.6h109.8V307.9z M435.4,270.3c0,8.9,7.2,16.1,16.1,16.1s16.1-7.2,16.1-16.1c0-8.9-7.2-16.1-16.1-16.1
	S435.4,261.4,435.4,270.3z"/>
</svg>
